<svg width="38" height="38" viewBox="0 0 38 38" fill="none" xmlns="http://www.w3.org/2000/svg">
    <path d="M7 20.625V21.125H7.5H21.2929L15.5839 26.8339L15.2304 27.1875L15.5839 27.5411L18.2464 30.2036L18.6 30.5571L18.9536 30.2036L30.0536 19.1036L30.4071 18.75L30.0536 18.3964L18.9536 7.29645L18.6 6.94289L18.2464 7.29645L15.5839 9.95895L15.2304 10.3125L15.5839 10.6661L21.2929 16.375H7.5H7V16.875V20.625ZM37 18.75C37 23.5902 35.0772 28.2322 31.6547 31.6547C28.2322 35.0772 23.5902 37 18.75 37C16.3534 37 13.9802 36.528 11.766 35.6108C9.55184 34.6937 7.53997 33.3494 5.8453 31.6547C2.42276 28.2322 0.5 23.5902 0.5 18.75C0.5 13.9098 2.42276 9.26784 5.8453 5.8453C9.26784 2.42276 13.9098 0.5 18.75 0.5C21.1466 0.5 23.5198 0.97205 25.734 1.8892C27.9482 2.80635 29.96 4.15063 31.6547 5.8453C33.3494 7.53997 34.6937 9.55184 35.6108 11.766C36.528 13.9802 37 16.3534 37 18.75Z" stroke="#FE474D"/>
</svg>
