<svg width="36" height="30" viewBox="0 0 36 30" fill="none" xmlns="http://www.w3.org/2000/svg">
    <path d="M17.9366 14.0459C16.9866 14.0459 16.0756 13.7252 15.4038 13.1543C14.7321 12.5833 14.3547 11.809 14.3547 11.0016C14.3547 10.1941 14.7321 9.41979 15.4038 8.84886C16.0756 8.27792 16.9866 7.95718 17.9366 7.95718C18.8866 7.95718 19.7977 8.27792 20.4694 8.84886C21.1412 9.41979 21.5186 10.1941 21.5186 11.0016C21.5186 11.4014 21.4259 11.7972 21.2459 12.1666C21.0659 12.536 20.8021 12.8716 20.4694 13.1543C20.1368 13.437 19.742 13.6612 19.3074 13.8142C18.8728 13.9672 18.407 14.0459 17.9366 14.0459ZM17.9366 2.47729C15.2767 2.47729 12.7257 3.37538 10.8448 4.97399C8.96389 6.5726 7.90723 8.74078 7.90723 11.0016C7.90723 17.3948 17.9366 26.8323 17.9366 26.8323C17.9366 26.8323 27.966 17.3948 27.966 11.0016C27.966 8.74078 26.9094 6.5726 25.0285 4.97399C23.1476 3.37538 20.5966 2.47729 17.9366 2.47729Z" fill="#FE474D"/>
</svg>
