<svg width="444" height="119" viewBox="0 0 444 119" fill="none" xmlns="http://www.w3.org/2000/svg">
                <mask id="mask0_13_81" style="mask-type:luminance" maskUnits="userSpaceOnUse" x="0" y="0" width="444" height="119">
                <path d="M443.397 0H0V119H443.397V0Z" fill="white"/>
                <path d="M443.397 0H0V119H443.397V0Z" fill="white"/>
                </mask>
                <g mask="url(#mask0_13_81)">
                <path d="M185.779 61.9451V19.2652H190.948V57.3604H210.786V61.9451H185.779ZM238.295 48.8578V29.9351H243.213V61.9451H238.295V56.5267H237.963C237.213 58.1523 236.045 59.5347 234.461 60.674C232.876 61.7992 230.876 62.362 228.459 62.362C226.459 62.362 224.68 61.9243 223.123 61.0491C221.568 60.1598 220.346 58.826 219.456 57.0477C218.567 55.2556 218.122 52.998 218.122 50.2748V29.9351H223.04V49.9415C223.04 52.2755 223.694 54.1371 225 55.5265C226.32 56.9158 228.001 57.6105 230.043 57.6105C231.266 57.6105 232.51 57.2978 233.773 56.6726C235.051 56.0475 236.12 55.0888 236.983 53.7967C237.858 52.5047 238.295 50.8584 238.295 48.8578ZM255.889 29.9351L263.559 43.0225L271.227 29.9351H276.897L266.56 45.9401L276.897 61.9451H271.227L263.559 49.5246L255.889 61.9451H250.221L260.392 45.9401L250.221 29.9351H255.889ZM296.017 62.612C292.932 62.612 290.272 61.9313 288.035 60.5696C285.812 59.1943 284.097 57.2771 282.887 54.8179C281.693 52.3449 281.096 49.4691 281.096 46.1902C281.096 42.9115 281.693 40.0216 282.887 37.5208C284.097 35.0062 285.778 33.0472 287.931 31.644C290.098 30.2269 292.626 29.5185 295.516 29.5185C297.184 29.5185 298.83 29.7962 300.455 30.352C302.081 30.9077 303.561 31.8108 304.894 33.0611C306.228 34.2977 307.291 35.9371 308.083 37.9794C308.875 40.0216 309.271 42.5363 309.271 45.5233V47.6073H284.596V43.356H304.27C304.27 41.5499 303.908 39.9383 303.186 38.5212C302.477 37.1041 301.463 35.9857 300.142 35.1659C298.837 34.3463 297.295 33.9365 295.516 33.9365C293.557 33.9365 291.863 34.4227 290.432 35.3953C289.015 36.3538 287.925 37.6043 287.16 39.1464C286.396 40.6885 286.014 42.3418 286.014 44.1062V46.9406C286.014 49.3579 286.43 51.4071 287.264 53.0883C288.112 54.7554 289.286 56.0266 290.785 56.9018C292.287 57.7634 294.029 58.194 296.017 58.194C297.309 58.194 298.476 58.0134 299.518 57.6522C300.573 57.2771 301.484 56.7214 302.247 55.985C303.011 55.2347 303.602 54.3039 304.019 53.1925L308.771 54.5262C308.27 56.1378 307.429 57.5549 306.249 58.7775C305.069 59.9862 303.61 60.9309 301.872 61.6118C300.136 62.2785 298.185 62.612 296.017 62.612ZM340.759 29.9351C340.51 27.8234 339.496 26.184 337.717 25.017C335.939 23.85 333.757 23.2664 331.174 23.2664C329.284 23.2664 327.63 23.5721 326.213 24.1834C324.81 24.7947 323.713 25.6353 322.92 26.705C322.143 27.7749 321.753 28.9905 321.753 30.352C321.753 31.4913 322.025 32.4706 322.567 33.2904C323.122 34.0962 323.832 34.77 324.692 35.3118C325.553 35.8398 326.456 36.2775 327.402 36.6247C328.345 36.9582 329.214 37.2292 330.007 37.4375L334.341 38.6045C335.453 38.8963 336.688 39.2993 338.051 39.8133C339.425 40.3273 340.739 41.0289 341.99 41.9181C343.253 42.7933 344.295 43.9188 345.115 45.2941C345.935 46.6696 346.345 48.3576 346.345 50.3581C346.345 52.6645 345.741 54.7484 344.531 56.6102C343.336 58.4718 341.587 59.9515 339.28 61.0491C336.988 62.1466 334.203 62.6953 330.923 62.6953C327.866 62.6953 325.22 62.2022 322.984 61.2158C320.76 60.2293 319.01 58.8539 317.732 57.0895C316.467 55.325 315.753 53.2758 315.585 50.9417H320.92C321.059 52.5533 321.602 53.8871 322.545 54.9429C323.504 55.9849 324.714 56.7629 326.172 57.2771C327.645 57.7772 329.229 58.0273 330.923 58.0273C332.897 58.0273 334.667 57.7078 336.237 57.0686C337.807 56.4157 339.051 55.5126 339.968 54.3595C340.884 53.1925 341.343 51.831 341.343 50.2748C341.343 48.8578 340.948 47.7046 340.156 46.8155C339.364 45.9263 338.322 45.2038 337.029 44.6481C335.736 44.0924 334.341 43.6061 332.841 43.1893L327.589 41.6889C324.254 40.7302 321.615 39.3617 319.67 37.5834C317.725 35.8051 316.752 33.4779 316.752 30.602C316.752 28.2124 317.397 26.1284 318.69 24.3501C319.996 22.5579 321.747 21.1686 323.942 20.1822C326.151 19.1818 328.618 18.6816 331.34 18.6816C334.092 18.6816 336.537 19.1749 338.676 20.1613C340.816 21.1339 342.51 22.4676 343.76 24.1625C345.025 25.8575 345.692 27.7817 345.762 29.9351H340.759ZM368.096 29.9351V34.1032H351.508V29.9351H368.096ZM356.343 22.2661H361.261V52.7756C361.261 54.165 361.462 55.207 361.866 55.9016C362.282 56.5823 362.81 57.0409 363.449 57.2771C364.103 57.4993 364.79 57.6105 365.513 57.6105C366.054 57.6105 366.499 57.5827 366.846 57.5271C367.193 57.4577 367.47 57.4021 367.679 57.3604L368.68 61.7784C368.346 61.9034 367.881 62.0285 367.283 62.1535C366.686 62.2925 365.928 62.362 365.012 62.362C363.623 62.362 362.26 62.0632 360.927 61.4659C359.608 60.8684 358.51 59.9583 357.634 58.7357C356.773 57.5131 356.343 55.971 356.343 54.1094V22.2661ZM384.914 62.6953C382.885 62.6953 381.045 62.3134 379.392 61.5492C377.739 60.7711 376.425 59.6528 375.453 58.194C374.48 56.7214 373.994 54.9429 373.994 52.8589C373.994 51.025 374.354 49.5385 375.078 48.3992C375.8 47.2462 376.765 46.3431 377.975 45.6901C379.183 45.037 380.516 44.5508 381.975 44.2313C383.449 43.8979 384.928 43.6338 386.414 43.4393C388.359 43.1893 389.937 43.0018 391.145 42.8768C392.367 42.7377 393.257 42.5085 393.813 42.189C394.382 41.8695 394.668 41.3136 394.668 40.5219V40.3551C394.668 38.2989 394.105 36.7012 392.979 35.5619C391.867 34.4227 390.18 33.853 387.916 33.853C385.567 33.853 383.726 34.3671 382.393 35.3953C381.059 36.4232 380.12 37.5208 379.579 38.688L374.91 37.0207C375.745 35.0756 376.857 33.5614 378.246 32.4777C379.649 31.3801 381.177 30.6159 382.83 30.1852C384.497 29.7407 386.137 29.5185 387.748 29.5185C388.776 29.5185 389.958 29.6435 391.292 29.8936C392.638 30.1298 393.937 30.6229 395.188 31.3731C396.453 32.1234 397.501 33.2557 398.335 34.77C399.168 36.2843 399.586 38.3127 399.586 40.8553V61.9451H394.668V57.6105H394.417C394.084 58.3051 393.528 59.0484 392.751 59.8403C391.971 60.6322 390.936 61.3061 389.645 61.8618C388.352 62.4176 386.776 62.6953 384.914 62.6953ZM385.664 58.2773C387.609 58.2773 389.249 57.8952 390.582 57.1312C391.931 56.367 392.945 55.3806 393.626 54.1718C394.32 52.9633 394.668 51.6919 394.668 50.3581V45.8568C394.459 46.1069 394.001 46.3361 393.292 46.5446C392.597 46.7391 391.792 46.9127 390.874 47.0656C389.971 47.2045 389.089 47.3295 388.227 47.4407C387.381 47.5378 386.693 47.6213 386.165 47.6907C384.887 47.8575 383.692 48.1283 382.58 48.5035C381.483 48.8648 380.593 49.4135 379.913 50.1498C379.245 50.8723 378.912 51.8587 378.912 53.109C378.912 54.8179 379.545 56.1101 380.808 56.9853C382.086 57.8467 383.705 58.2773 385.664 58.2773ZM410.584 73.9488C409.75 73.9488 409.006 73.8794 408.354 73.7405C407.701 73.6155 407.249 73.4904 407 73.3654L408.25 69.0307C409.445 69.3363 410.499 69.4475 411.417 69.3641C412.333 69.2808 413.147 68.8709 413.856 68.1346C414.578 67.4121 415.238 66.2381 415.835 64.6127L416.753 62.1119L404.915 29.9351H410.25L419.085 55.4432H419.42L428.255 29.9351H433.59L420.003 66.6132C419.392 68.2665 418.634 69.635 417.732 70.7187C416.829 71.8163 415.779 72.6291 414.585 73.1569C413.404 73.6849 412.069 73.9488 410.584 73.9488Z" fill="white"/>
                <path d="M1.63013 1.63013V74.9863L70.0959 117.37L153.233 74.9863V1.63013" stroke="#FE474D" stroke-width="2"/>
                <path d="M1.63013 1.63013L70.0959 44.0137L153.233 1.63013" stroke="#FE474D" stroke-width="2"/>
                <path d="M102.699 101.068V62.4484C106.084 54.4382 115.74 38.9545 128.781 52.8487V87.1748" stroke="#FE474D" stroke-width="2"/>
                <path d="M70.0959 44.0137V117.37" stroke="#FE474D" stroke-width="2"/>
                </g>
            </svg>