<svg width="51" height="51" viewBox="0 0 51 51" fill="none" xmlns="http://www.w3.org/2000/svg">
    <path d="M25.4999 43.7999C19.1458 43.7999 13.5287 40.5466 10.2499 35.6666C10.3262 30.5833 20.4166 27.7874 25.4999 27.7874C30.5833 27.7874 40.6737 30.5833 40.7499 35.6666C37.4712 40.5466 31.8541 43.7999 25.4999 43.7999ZM25.4999 7.70825C27.5222 7.70825 29.4616 8.5116 30.8916 9.94156C32.3216 11.3715 33.1249 13.311 33.1249 15.3333C33.1249 17.3555 32.3216 19.295 30.8916 20.7249C29.4616 22.1549 27.5222 22.9583 25.4999 22.9583C23.4776 22.9583 21.5382 22.1549 20.1082 20.7249C18.6783 19.295 17.8749 17.3555 17.8749 15.3333C17.8749 13.311 18.6783 11.3715 20.1082 9.94156C21.5382 8.5116 23.4776 7.70825 25.4999 7.70825ZM25.4999 0.083252C22.1622 0.083252 18.8571 0.740674 15.7734 2.01798C12.6897 3.29529 9.88778 5.16747 7.52762 7.52762C2.76107 12.2942 0.083252 18.759 0.083252 25.4999C0.083252 32.2408 2.76107 38.7057 7.52762 43.4722C9.88778 45.8324 12.6897 47.7046 15.7734 48.9819C18.8571 50.2592 22.1622 50.9166 25.4999 50.9166C32.2408 50.9166 38.7057 48.2388 43.4722 43.4722C48.2388 38.7057 50.9166 32.2408 50.9166 25.4999C50.9166 11.4445 39.4791 0.083252 25.4999 0.083252Z" fill="#FE474D"/>
</svg>
